<svg width="42" height="42" viewBox="0 0 42 42" fill="none" xmlns="http://www.w3.org/2000/svg">
<path d="M28.7285 6.97308V4.31032C28.7285 3.6105 28.1481 3.03015 27.4483 3.03015C26.7485 3.03015 26.1681 3.6105 26.1681 4.31032V6.87067H15.0733V4.31032C15.0733 3.6105 14.493 3.03015 13.7931 3.03015C13.0933 3.03015 12.513 3.6105 12.513 4.31032V6.97308C7.90436 7.39981 5.66832 10.1479 5.32694 14.2274C5.2928 14.7224 5.70246 15.132 6.18039 15.132H35.0611C35.5561 15.132 35.9657 14.7053 35.9145 14.2274C35.5731 10.1479 33.3371 7.39981 28.7285 6.97308Z" fill="white"/>
<path opacity="0.4" d="M35.9828 19.3959V22.3659C35.9828 23.4071 35.0611 24.2093 34.0369 24.0387C33.559 23.9704 33.064 23.9192 32.569 23.9192C30.0806 23.9237 27.6953 24.9142 25.9357 26.6738C24.1761 28.4334 23.1856 30.8187 23.1811 33.3071C23.1811 34.0923 23.4883 35.1847 23.8126 36.1747C23.9003 36.4318 23.9252 36.7062 23.8852 36.9749C23.8452 37.2437 23.7416 37.4989 23.5829 37.7194C23.4242 37.9399 23.2151 38.1193 22.9729 38.2425C22.7308 38.3657 22.4628 38.4293 22.1911 38.4278H13.7931C7.81901 38.4278 5.25867 35.014 5.25867 29.8933V19.3788C5.25867 18.44 6.02677 17.6719 6.96556 17.6719H34.2759C35.2147 17.689 35.9828 18.4571 35.9828 19.3959Z" fill="white"/>
<path d="M14.6466 26.5C14.2028 26.5 13.759 26.3123 13.4347 26.005C13.1275 25.6807 12.9397 25.2369 12.9397 24.7931C12.9397 24.3493 13.1275 23.9055 13.4347 23.5812C13.8273 23.1886 14.4247 23.0009 14.988 23.1204C15.0904 23.1374 15.1928 23.1716 15.2952 23.2228C15.3976 23.2569 15.5 23.3081 15.6025 23.3764L15.8585 23.5812C16.1657 23.9055 16.3535 24.3493 16.3535 24.7931C16.3535 25.2369 16.1657 25.6807 15.8585 26.005L15.6025 26.2098C15.5 26.2781 15.3976 26.3293 15.2952 26.3635C15.1928 26.4147 15.0904 26.4488 14.988 26.4659C14.8685 26.4829 14.749 26.5 14.6466 26.5ZM20.6207 26.5C20.1769 26.5 19.7331 26.3123 19.4088 26.005C19.1016 25.6807 18.9138 25.2369 18.9138 24.7931C18.9138 24.3493 19.1016 23.9055 19.4088 23.5812C20.0575 22.9497 21.2011 22.9497 21.8326 23.5812C22.1399 23.9055 22.3276 24.3493 22.3276 24.7931C22.3276 25.2369 22.1399 25.6807 21.8326 26.005C21.5083 26.3123 21.0645 26.5 20.6207 26.5ZM14.6466 32.4724C14.2028 32.4724 13.759 32.2847 13.4347 31.9774C13.1275 31.6531 12.9397 31.2093 12.9397 30.7655C12.9397 30.3218 13.1275 29.878 13.4347 29.5536C13.6054 29.4 13.7761 29.2805 13.998 29.1952C14.6295 28.9221 15.3806 29.0757 15.8585 29.5536C16.1657 29.878 16.3535 30.3218 16.3535 30.7655C16.3535 31.2093 16.1657 31.6531 15.8585 31.9774C15.5342 32.2847 15.0904 32.4724 14.6466 32.4724ZM37.3995 28.4971C36.1171 27.2184 34.38 26.5003 32.569 26.5003C30.758 26.5003 29.0209 27.2184 27.7385 28.4971C26.4598 29.7795 25.7417 31.5166 25.7417 33.3276C25.7417 35.1386 26.4598 36.8757 27.7385 38.1581C29.0209 39.4368 30.758 40.1549 32.569 40.1549C34.38 40.1549 36.1171 39.4368 37.3995 38.1581C38.6783 36.8757 39.3963 35.1386 39.3963 33.3276C39.3963 31.5166 38.6783 29.7795 37.3995 28.4971ZM36.1023 34.2835C35.8804 34.5224 35.5561 34.659 35.1976 34.659H33.9345V35.9904C33.9345 36.3488 33.798 36.656 33.559 36.895C33.32 37.134 33.0128 37.2705 32.6544 37.2705C31.9545 37.2705 31.3742 36.6902 31.3742 35.9904V34.659H30.094C29.7545 34.659 29.4289 34.5241 29.1888 34.284C28.9487 34.0439 28.8138 33.7183 28.8138 33.3788C28.8138 33.0393 28.9487 32.7137 29.1888 32.4736C29.4289 32.2335 29.7545 32.0986 30.094 32.0986H31.3742V30.8867C31.3742 30.5472 31.5091 30.2216 31.7491 29.9815C31.9892 29.7414 32.3148 29.6066 32.6544 29.6066C32.9939 29.6066 33.3195 29.7414 33.5596 29.9815C33.7997 30.2216 33.9345 30.5472 33.9345 30.8867V32.0986H35.1976C35.9145 32.0986 36.4778 32.679 36.4778 33.3788C36.4778 33.7373 36.3413 34.0616 36.1023 34.2835Z" fill="white"/>
</svg>
