<svg width="24" height="24" viewBox="0 0 24 24" fill="none" xmlns="http://www.w3.org/2000/svg">
<path opacity="0.4" d="M9 7.2V16.79C9 20 11 22 14.2 22H16.79C19.99 22 21.99 20 21.99 16.8V7.2C22 4 20 2 16.8 2H14.2C11 2 9 4 9 7.2Z" fill="#3CB189"/>
<path d="M5.5675 8.225L2.2175 11.575C1.9275 11.865 1.9275 12.345 2.2175 12.635L5.5675 15.985C5.8575 16.275 6.3375 16.275 6.6275 15.985C6.9175 15.695 6.9175 15.215 6.6275 14.925L4.5575 12.855H15.2475C15.6575 12.855 15.9975 12.515 15.9975 12.105C15.9975 11.695 15.6575 11.355 15.2475 11.355H4.5575L6.6275 9.285C6.7775 9.135 6.8475 8.945 6.8475 8.755C6.8475 8.565 6.7775 8.365 6.6275 8.225C6.3375 7.925 5.8675 7.925 5.5675 8.225Z" fill="#3CB189"/>
</svg>
