<svg width="358" height="220" viewBox="0 0 358 220" fill="none" xmlns="http://www.w3.org/2000/svg">
<g clip-path="url(#clip0_72_225)">
<path d="M116.492 211.786L26.302 211.717C23.2923 211.717 20.7546 209.976 20.393 207.659L2.88818 95.4054C2.59696 93.5406 4.52505 91.9149 6.94596 91.9839L94.5579 94.4602C96.494 94.5147 98.0908 95.651 98.3276 97.1419L116.492 211.786Z" fill="url(#paint0_linear_72_225)"/>
<path d="M11.679 95.4198L90.8457 97.6538C92.7818 97.7084 94.3787 98.843 94.6155 100.332L111.768 208.756L24.7276 208.37L7.62121 98.8366C7.32999 96.9749 9.25808 95.3508 11.679 95.4198Z" fill="url(#paint1_linear_72_225)"/>
<path d="M200.299 219.459H76.6995C73.1698 219.459 70.3088 216.964 70.3088 213.887V213.833H206.753C206.753 216.941 203.864 219.461 200.299 219.461V219.459Z" fill="#355389"/>
<path d="M139.285 219.459H31.0558C27.9645 219.459 25.4587 216.026 25.4587 211.793V211.717H144.936C144.936 215.993 142.406 219.459 139.285 219.459Z" fill="url(#paint2_linear_72_225)"/>
<path d="M86.2678 138.141C86.2678 138.141 97.3659 140.638 107.254 132.068L102.253 122.89C102.253 122.89 90.756 130.919 86.3318 127.509L86.2694 138.14L86.2678 138.141Z" fill="#B7D972"/>
<path d="M97.3051 130.947L91.1688 120.855C91.1688 120.855 103.15 114.261 105.478 109.401L113.311 116.496C113.311 116.496 104.133 127.299 97.3051 130.947Z" fill="#D9E8B5"/>
<path d="M356.32 218.652H1.68008C0.752034 218.652 0 218.954 0 219.326C0 219.698 0.752034 220 1.68008 220H356.32C357.248 220 358 219.698 358 219.326C358 218.954 357.248 218.652 356.32 218.652Z" fill="url(#paint3_linear_72_225)"/>
<path d="M40.9651 99.3373L41.2195 101.26L43.1012 101.851L43.234 104.027L45.4309 104.036L45.6901 106.49L47.7126 106.75L48.3446 109.069L47.4694 109.31L46.9957 107.575L44.8628 107.301L44.6148 104.943L42.3795 104.932L42.2339 102.533L40.3954 101.955L40.1602 100.172L38.8754 100.045L38.9634 99.14L40.9651 99.3373Z" fill="url(#paint4_linear_72_225)"/>
<path d="M265.788 69.7422L263.178 70.007L262.289 65.844L258.424 65.7606L257.25 62.7531L255.733 63.3485L257.303 67.3702L260.964 67.4505L261.89 71.782L265.817 71.3824L265.788 69.7422Z" fill="#B7D972"/>
<path d="M203.556 29.4652L200.947 29.7316L200.057 25.567L196.194 25.4835L195.02 22.476L193.501 23.073L195.073 27.0948L198.734 27.1734L199.659 31.5049L203.587 31.1053L203.556 29.4652Z" fill="url(#paint5_linear_72_225)"/>
<path d="M77.5203 43.6023L79.9604 43.4498C79.9604 43.4498 83.2197 45.5426 83.3797 46.3643C83.5397 47.1843 83.1781 48.977 83.6726 49.1583C84.167 49.3397 85.1894 49.4311 85.7383 48.2837C86.1367 47.4507 85.5174 44.578 85.7894 44.3598C85.9591 44.2234 87.3591 44.095 88.3832 44.018C89.0568 43.9682 89.6456 43.5397 89.9112 42.9058C90.092 42.4757 89.9528 41.9766 89.58 41.707L88.9992 41.2865L89.38 40.6718C89.6632 40.2144 89.532 39.6062 89.084 39.3125L88.628 39.0124L88.8936 38.6465C89.236 38.1763 89.1016 37.5038 88.6056 37.2053L88.2024 36.963L88.2504 36.8507C88.452 36.3837 88.2712 35.8348 87.8311 35.586L87.4263 35.3582L80.9268 35.7658C80.3172 35.8043 79.7236 35.9696 79.1796 36.2505L76.9187 36.7801C76.6754 36.8362 76.5106 37.0673 76.5298 37.3209L76.9827 43.1257C77.0051 43.4065 77.2419 43.6167 77.5171 43.6007L77.5203 43.6023Z" fill="url(#paint6_linear_72_225)"/>
<path d="M313.932 107.949L311.544 107.755L311.217 109.973L308.855 109.886L308.283 111.966L306.505 112.191L306.619 113.094L308.996 112.792L309.539 110.822L311.996 110.912L312.318 108.731L314.483 108.907L313.932 107.949Z" fill="url(#paint7_linear_72_225)"/>
<path d="M258.133 21.5757L255.744 21.3831L255.418 23.5994L253.056 23.5128L252.483 25.5943L250.706 25.8189L250.819 26.7225L253.197 26.4208L253.739 24.4484L256.197 24.5383L256.519 22.3589L258.684 22.5338L258.133 21.5757Z" fill="url(#paint8_linear_72_225)"/>
<path d="M312.764 60.2286L315.161 60.1436L315.23 57.9048L317.587 57.717L317.915 55.5842L319.656 55.1557L319.44 54.2714L317.112 54.846L316.8 56.8665L314.348 57.0607L314.28 59.2641L312.108 59.3412L312.764 60.2286Z" fill="url(#paint9_linear_72_225)"/>
<path d="M27.9661 124.938L29.4174 126.22L31.2223 125.426L32.7471 126.979L34.4112 125.538L36.2129 127.218L37.9074 126.082L39.9042 127.413L39.4018 128.172L37.909 127.175L36.1201 128.374L34.3888 126.761L32.6975 128.225L31.0142 126.511L29.251 127.286L27.9069 126.098L26.8541 126.849L26.3276 126.108L27.9661 124.938Z" fill="#B7D972"/>
<path d="M271.148 174.416H163.908C159.812 174.416 156.492 171.562 156.492 168.044V164.255C156.492 160.736 159.812 157.884 163.908 157.884H271.148C266.242 162.49 266.158 169.531 270.951 174.223L271.148 174.416Z" fill="url(#paint10_linear_72_225)"/>
<path d="M207.899 159.667C204.236 159.667 201.267 162.399 201.267 165.769C201.267 169.139 204.236 171.87 207.899 171.87H269.127C267.065 168.036 267.22 163.369 269.57 159.667H207.899Z" fill="#EDFDFC"/>
<path d="M280.8 173.901H154.684C150.767 173.901 147.592 177.219 147.592 181.313V187.548C147.592 191.642 150.767 194.961 154.684 194.961H280.801L280.736 194.889C275.34 189.018 275.369 179.734 280.801 173.902L280.8 173.901Z" fill="url(#paint11_linear_72_225)"/>
<path d="M278.568 177.017H211.149C207.232 177.017 204.057 180.336 204.057 184.43C204.057 188.524 207.232 191.843 211.149 191.843H278.568C276.089 187.253 276.092 181.604 278.568 177.019V177.017Z" fill="#EDFDFC"/>
<path d="M278.568 194.959H133.152C128.636 194.959 124.975 198.692 124.975 203.298V210.313C124.975 214.919 128.636 218.652 133.152 218.652H278.568L278.491 218.572C272.27 211.968 272.303 201.522 278.568 194.959Z" fill="url(#paint12_linear_72_225)"/>
<path d="M275.993 198.466H198.257C193.742 198.466 190.081 202.199 190.081 206.805C190.081 211.411 193.742 215.144 198.257 215.144H275.992C273.134 209.981 273.139 203.626 275.992 198.466H275.993Z" fill="#EDFDFC"/>
<path d="M210.893 135.65H260.402C261.071 135.65 261.613 136.194 261.613 136.865V141.032C261.613 141.702 261.071 142.246 260.402 142.246H210.894C210.226 142.246 209.683 141.702 209.683 141.032V136.865C209.683 136.194 210.226 135.65 210.894 135.65H210.893Z" fill="#EDFDFC"/>
<path d="M212.763 143.437L213.142 142.985L186.96 142.29V153.055L213.691 152.071L212.546 151.084C210.173 149.04 210.155 145.272 212.763 143.437Z" fill="url(#paint13_linear_72_225)"/>
<path d="M264.325 155.539H185.205C184.719 155.539 184.325 155.935 184.325 156.422V157C184.325 157.487 184.719 157.883 185.205 157.883H264.325C264.811 157.883 265.205 157.487 265.205 157V156.422C265.205 155.935 264.811 155.539 264.325 155.539Z" fill="#473B1E"/>
<path d="M264.325 155.539H186.013V152.54C186.013 151.705 186.687 151.03 187.519 151.03H259.831C262.314 151.03 264.327 153.049 264.327 155.539H264.325Z" fill="url(#paint14_linear_72_225)"/>
<path d="M257.184 124.057L188.538 137.575C180.65 139.343 183.628 146.241 185.015 146.241L265.42 137.604C265.42 134.834 267.108 122.617 257.183 124.059L257.184 124.057Z" fill="url(#paint15_linear_72_225)"/>
<path d="M161.662 55.0128C161.662 55.0128 154.378 66.6047 154.112 66.5935C153.725 66.5758 150.808 59.7857 151.452 56.8584C151.946 54.6132 151.261 51.3859 151.261 51.3859C151.261 51.3859 146.752 53.2443 147.064 56.1523C147.234 57.7363 148.064 60.8112 148.064 60.8112C148.064 60.8112 148.768 69.4533 150.255 74.7991C151.664 79.8688 166.516 62.8173 166.516 62.8173L161.66 55.0144L161.662 55.0128Z" fill="#F7A491"/>
<path d="M166.518 62.814L160.77 55.0112C160.77 55.0112 156.681 60.5753 154.461 63.9471C155.327 64.9485 157.069 66.6448 157.885 67.7506C158.457 68.5321 158.903 69.625 159.426 70.4901C163.122 66.9754 166.518 62.8124 166.518 62.8124V62.814Z" fill="url(#paint16_linear_72_225)"/>
<path d="M149.451 52.7468C149.451 52.7468 151.316 50.6974 151.74 51.4003C152.164 52.1032 152.296 53.7931 151.96 53.7161C151.626 53.6391 151.544 52.4916 150.648 52.8912C150.399 53.0019 149.157 53.5508 149.451 52.7468Z" fill="#F7A491"/>
<path d="M156.687 45.0001L157.573 45.2312C158.094 45.366 158.462 45.8282 158.481 46.3659L158.514 47.3192C158.535 47.921 158.114 48.4474 157.524 48.5565L156.593 48.7298L156.687 44.9985V45.0001Z" fill="url(#paint17_linear_72_225)"/>
<path d="M155.396 49.2883L154.399 50.1341L154.289 51.1163C154.289 51.1163 153.153 57.2019 152.522 58.1279C151.892 59.0523 149.728 58.6045 149.565 58.1648C149.402 57.7251 150.703 54.0531 150.703 54.0531L150.319 51.1339L149.167 50.1806L155.397 49.2915L155.396 49.2883Z" fill="url(#paint18_linear_72_225)"/>
<path d="M147.688 43.4049L155.751 44.1303C156.495 44.1977 157.063 44.822 157.063 45.5699V48.5019C157.063 49.2289 156.524 49.8436 155.805 49.9367L147.925 50.9509L147.688 43.4065V43.4049Z" fill="url(#paint19_linear_72_225)"/>
<path d="M147.735 43.1241L148.072 51.044C148.098 51.6362 147.691 52.1578 147.114 52.2798L132.742 55.6548L131.088 39.9432L146.687 41.9766C147.267 42.052 147.711 42.5367 147.736 43.1241H147.735Z" fill="url(#paint20_linear_72_225)"/>
<path d="M129.283 48.0622C129.662 52.3905 131.209 55.7896 132.74 55.6548C134.272 55.52 135.204 51.9026 134.827 47.5744C134.448 43.2461 132.9 39.847 131.369 39.9818C129.838 40.1166 128.905 43.7339 129.283 48.0622Z" fill="url(#paint21_linear_72_225)"/>
<path d="M132.795 54.4912C133.499 53.7225 134.084 51.0681 133.787 47.6658C133.414 43.4065 131.985 41.0811 131.455 41.0249C131.455 41.0249 131.399 41.0522 131.315 41.1469C130.611 41.9156 130.025 44.5684 130.323 47.9723C130.695 52.2316 132.124 54.557 132.652 54.6132C132.656 54.61 132.708 54.5859 132.793 54.4928L132.795 54.4912Z" fill="#EDFDFC"/>
<path d="M148.829 55.2102L150.14 54.2955C150.14 54.2955 151.05 53.7354 151.874 54.0339C152.698 54.3324 153.146 53.3325 152.247 53.0726C151.348 52.8126 150.73 52.7596 150.73 52.7596C150.73 52.7596 152.791 52.7034 152.872 52.6071C153.335 52.0663 152.536 51.3842 150.879 51.7068C149.221 52.0278 148.831 55.2102 148.831 55.2102H148.829Z" fill="#F7A491"/>
<path d="M153.565 54.066C153.565 54.066 151.701 55.0722 151.815 55.7783C151.927 56.4845 153.223 56.0463 153.223 56.0463C153.223 56.0463 154.737 54.0355 153.736 53.8445L153.565 54.066Z" fill="#F7A491"/>
<path d="M205.241 125.522C205.241 125.522 204.876 129.862 204.873 129.87C204.768 130.419 204.376 131.773 204.361 132.274C204.308 134.158 212.765 130.906 210.915 130.019C210.747 129.939 209.875 129.342 209.837 128.7C209.777 127.71 209.616 125.704 209.616 125.704L205.241 125.521V125.522Z" fill="#F7A491"/>
<path d="M210.894 130.003C210.894 130.003 208.915 130.524 207.907 130.64C206.897 130.756 205.606 129.505 204.886 129.814C204.094 130.152 203.995 134.532 203.995 134.532C203.995 134.532 214.189 132.811 217.176 131.937C218.359 131.59 215.907 130.51 210.896 130.003H210.894Z" fill="url(#paint22_linear_72_225)"/>
<path d="M174.632 149.842C174.632 149.842 174.387 154.19 174.385 154.199C174.296 154.751 173.941 156.116 173.941 156.616C173.941 158.502 182.303 155.016 180.429 154.18C180.259 154.105 179.107 153.105 179.051 152.465C178.965 151.476 179.011 149.903 179.011 149.903L174.633 149.842H174.632Z" fill="#F7A491"/>
<path d="M180.408 154.164C180.408 154.164 178.445 154.74 177.44 154.885C176.435 155.029 175.109 153.814 174.397 154.143C173.614 154.504 173.641 157.884 173.641 157.884C173.641 157.884 185.562 158.422 188.196 157.658C189.38 157.314 184.421 155.507 180.408 154.164Z" fill="url(#paint23_linear_72_225)"/>
<path d="M182.135 82.1461L188.884 84.7428C188.884 84.7428 212.514 87.4486 214.131 90.0099C216.815 94.2564 210.139 126.766 210.139 126.766H204.342L204.894 103.756L206.145 98.5477C204.353 98.039 175.531 99.7819 175.531 99.7819L182.135 82.1461Z" fill="#473B1E"/>
<path d="M188.538 84.3015L186.853 119.149L180.403 151.635L174.464 151.601C174.464 151.601 173.974 143.686 174.944 132.097C175.493 125.538 176.483 124.962 176.429 117.548C176.368 109.307 173.105 99.7418 172.877 96.4117C172.821 95.5884 171.907 90.4464 172.425 89.9104C176.339 85.8501 188.538 84.3031 188.538 84.3031V84.3015Z" fill="#847D3D"/>
<path d="M222 47.6594C222 46.95 214.84 48.2997 214.069 48.2997C213.606 48.2997 212.68 49.0957 212.01 49.7344C211.677 50.0522 211.245 50.2432 210.786 50.2737C209.653 50.3491 208.477 50.3989 208.477 50.3989C208.477 50.3989 196.356 50.991 195.7 50.9975L177.224 48.2997L177.118 57.25C177.118 57.25 192.951 56.7749 193.666 56.9178C194.321 57.0494 208.059 54.6052 211.454 54.0387C211.454 54.0387 216.559 53.546 217.029 52.6007C217.501 51.6555 216.781 49.9286 217.181 49.529C217.581 49.1278 222 48.3671 222 47.6594Z" fill="#F48C7F"/>
<path d="M189.089 49.2883L177.224 48.2997L177.118 57.25C177.118 57.25 184.864 57.1248 189.765 57.0334C189.17 54.7561 188.772 51.6122 189.089 49.2883Z" fill="url(#paint24_linear_72_225)"/>
<path d="M171.803 49.5306C171.803 49.5306 176.141 47.998 177.445 48.3366C178.912 48.7186 183.386 55.1284 186.703 76.4473C187.183 79.535 188.884 84.7428 188.884 84.7428C188.884 84.7428 178.498 91.6982 172.269 91.7175C172.269 91.7175 171.216 81.6823 170.331 79.4564C169.446 77.2305 160.551 57.2821 160.452 55.6837C160.398 54.8154 162.817 53.4962 163.767 52.8511C166.139 51.2446 171.805 49.529 171.805 49.529L171.803 49.5306Z" fill="url(#paint25_linear_72_225)"/>
<path d="M168.372 43.9458L171.795 49.7938C171.795 49.7938 171.905 54.3484 169.582 54.5314C167.633 54.6854 165.467 51.9411 165.467 51.9411C165.467 51.9411 165.012 48.0397 164.028 46.39C163.044 44.7402 168.372 43.9442 168.372 43.9442V43.9458Z" fill="#F7A491"/>
<path d="M164.028 46.3915C163.044 44.7418 168.372 43.9457 168.372 43.9457L168.656 44.4304C168.651 44.8332 168.593 45.1975 168.472 45.5089C167.848 47.1105 166.425 48.4907 164.975 49.131C164.745 48.1216 164.43 47.0672 164.027 46.3899L164.028 46.3915Z" fill="#F47458"/>
<path d="M165.671 34.8174C165.671 34.8174 161.295 32.7278 159.249 35.8878C157.919 37.9404 158.711 41.9108 160.002 44.7546C160.095 44.7049 160.194 44.6648 160.3 44.6311C161.068 44.3935 161.852 44.7289 162.052 45.3773C162.231 45.9631 161.874 46.6066 161.238 46.9003C161.591 47.3673 161.946 47.714 162.279 47.8969C164.175 48.9321 167.491 46.8618 168.542 44.164C169.593 41.4663 165.79 34.7114 165.673 34.8158L165.671 34.8174Z" fill="#F7A491"/>
<path d="M158.815 31.6333C161.196 31.2 163.154 31.9703 163.907 32.333C164.953 32.0506 166.532 32.0586 168.856 33.8127C171.713 35.9696 171.692 39.6335 170.297 41.9846C168.904 44.3357 169.64 46.1235 169.64 46.1235L168.956 45.3147C168.444 44.7081 168.052 44.0035 167.839 43.238C167.711 42.779 167.617 42.2639 167.644 41.7985C167.716 40.5724 165.923 40.4937 165.155 39.8036C164.563 39.2724 163.945 37.7639 162.993 36.8764L162.042 36.2874C162.042 36.2874 160.177 35.7514 158.906 36.6212C157.636 37.491 155.761 32.1886 158.815 31.6333Z" fill="#473B1E"/>
<path d="M165.751 41.0362C166.083 41.914 166.764 42.4677 167.273 42.2751C167.782 42.0825 167.924 41.2143 167.593 40.3364C167.262 39.4586 166.58 38.9049 166.071 39.0975C165.563 39.2901 165.42 40.1583 165.751 41.0362Z" fill="#F7A491"/>
<path d="M288.92 132.312C287.978 130.422 287.32 127.403 287.63 124.853C287.883 122.789 289.077 121.195 290.816 120.276C295.743 117.67 296.524 122.091 304.137 120.334C306.502 119.788 308.659 120.075 310.956 120.457C315.104 121.146 320.349 124.662 320.115 130.748C319.546 145.65 299.679 138.062 296.533 137.339C293.983 136.751 290.117 134.708 288.92 132.311V132.312Z" fill="#002A24"/>
<path d="M288.381 134.267C288.381 134.267 283.346 130.165 282.205 128.332C281.064 126.499 276.318 116.716 276.216 116.026C276.113 115.336 277.947 112.935 277.459 112.492C277.15 112.213 275.406 112.845 274.6 111.924C274.131 111.388 274.804 109.302 274.297 109.074C273.791 108.846 272.766 111.924 272.441 114.53C272.364 115.144 276.864 127.677 278.064 130.159C279.264 132.64 286.035 138.39 286.035 138.39L288.383 134.269L288.381 134.267Z" fill="#F7A491"/>
<path d="M274.472 112.096C274.547 112.114 274.808 112.099 274.881 112.13L275.361 112.112C275.361 112.112 274.243 112.479 273.838 113.417C273.838 113.417 273.95 112.746 274.472 112.096Z" fill="#F47257"/>
<path d="M282.739 109.936C278.58 111.147 274.42 112.359 270.262 113.572C268.01 105.803 268.01 97.5511 270.262 89.7804C274.42 90.9921 278.58 92.2037 282.739 93.417C281.176 98.8125 281.176 104.542 282.739 109.936Z" fill="#EDFDFC"/>
<path d="M275.785 113.091L274.352 113.572C274.782 111.735 275.768 112.032 275.736 111.68L275.024 109.48C274.979 109.299 274.974 108.843 275.297 108.843C275.478 108.843 275.79 109.164 275.86 109.294C275.86 109.294 276.796 110.939 277.07 111.509C277.204 111.791 277.55 112.662 277.55 112.662L276.612 112.975L275.784 113.093L275.785 113.091Z" fill="#F7A491"/>
<path d="M287.421 132.895L285.014 138.387C285.014 138.387 291.597 142.925 293.693 142.482C295.789 142.039 293.621 135.482 293.621 135.482L287.421 132.895Z" fill="url(#paint26_linear_72_225)"/>
<path d="M299.628 213.146C299.628 213.146 299.167 200.917 295.484 190.084L306.465 173.305L304.788 160.749C304.788 160.749 297.684 157.931 299.769 161.721C299.929 162.012 294.895 173.663 288.743 186.444C287.051 189.957 294.736 205.073 296.34 213.016C296.377 213.627 296.473 213.752 296.321 214.03C296.036 214.547 295.456 214.909 295.074 215.285C294.924 215.433 294.621 216.444 294.503 216.54C292.685 218.015 292.024 218.549 292.509 218.424L300.522 217.429C300.522 217.429 300.879 217.175 301.071 216.455C301.263 215.734 300.18 214.519 299.884 213.874C299.799 213.69 299.713 213.438 299.626 213.147L299.628 213.146Z" fill="#F48C7F"/>
<path d="M340.906 200.658L340.185 191.472C340.185 191.472 339.996 191.077 339.322 190.763C338.647 190.45 337.269 191.313 336.585 191.494C336.295 191.572 335.865 191.721 335.373 191.669C331.538 191.263 319.865 188.527 315.478 189.235C314.556 183.528 315.806 169.596 315.113 166.008C314.353 162.074 308.615 157.224 308.615 157.224L299.17 160.397L303.25 169.37C303.25 169.37 308.339 193.72 309.641 194.642C312.897 196.941 330.519 195.149 335.127 194.85C335.738 194.918 336.273 195.035 336.519 195.234C336.978 195.603 337.441 196.036 337.745 196.478C337.865 196.651 338.21 197.134 338.284 197.267C339.422 199.315 339.772 199.829 340.29 200.459C340.609 200.844 340.946 201.156 340.906 200.655V200.658Z" fill="#F7A491"/>
<path d="M337.743 196.479C338.206 194.009 337.674 192.238 337.212 191.257C337.919 190.952 338.806 190.551 339.34 190.7C339.994 190.883 340.159 191.191 340.185 191.472C340.382 193.69 340.831 199.601 340.958 201.292C340.975 201.528 340.711 201.676 340.524 201.536C340.004 201.148 337.863 196.654 337.743 196.479Z" fill="#473B1E"/>
<path d="M295.188 215.209C297.693 215.243 299.343 215.078 300.228 214.454C300.649 215.1 301.193 215.908 301.138 216.461C301.071 217.14 300.796 217.355 300.524 217.427C298.378 218 293.567 218.75 291.874 218.756C290.375 218.761 290.189 218.376 290.295 218.166C290.587 217.585 295.037 215.359 295.188 215.209Z" fill="#473B1E"/>
<path d="M299.169 161.224L299.625 162.256L288.501 185.669C288.501 185.669 299.633 191.703 315.347 188.251C315.347 188.251 316.416 167.775 315.347 165.193C314.278 162.61 308.747 156.106 308.747 156.106L299.169 161.224Z" fill="url(#paint27_linear_72_225)"/>
<path d="M296.988 133.368C296.988 133.368 298.901 132.802 300.842 133.227C301.206 133.307 301.572 133.493 301.844 133.768C303.99 135.92 305.748 147.099 306.358 149.332C306.967 151.564 309.428 156.924 309.428 156.924C309.428 156.924 302.894 162.803 299.561 162.196C299.561 162.196 292.293 146.106 291.938 144.477C291.583 142.848 291.77 137.711 292.076 136.87C292.381 136.029 296.986 133.37 296.986 133.37L296.988 133.368Z" fill="#B7D972"/>
<path d="M294.34 128.331C294.788 128.979 296.069 132.558 297.044 133.347C298.018 134.137 296.975 138.414 294.485 139C293.744 139.175 293.732 135.801 293.623 135.482C293.016 133.718 291.509 131.025 290.919 130.154L294.34 128.331Z" fill="#F7A491"/>
<path d="M293.312 134.679C293.983 134.418 294.589 133.867 295.044 132.946C295.383 132.258 295.529 131.555 295.532 130.866C295.018 129.765 294.57 128.664 294.34 128.332L290.919 130.155C291.424 130.902 292.605 132.988 293.314 134.679H293.312Z" fill="#F48C7F"/>
<path d="M291.735 122.311C291.735 122.311 293.274 122.526 294.388 123.957C295.5 125.389 296.693 129.81 293.917 132.206C291.139 134.602 288.407 131.877 288.007 128.993C287.607 126.11 287.698 122.197 291.735 122.311Z" fill="#F7A491"/>
<path d="M287.261 128.443C287.45 129.136 287.919 129.597 288.307 129.475C288.696 129.353 288.858 128.692 288.667 128C288.477 127.307 288.008 126.846 287.619 126.968C287.231 127.09 287.069 127.751 287.259 128.443H287.261Z" fill="#F7A491"/>
<path d="M291.127 122.052C291.127 122.052 293.496 126.26 295.197 126.458C296.898 126.655 297.117 128.889 297.117 128.889C297.117 128.889 296.521 123.742 294.837 122.747C293.156 121.751 291.127 122.052 291.127 122.052Z" fill="#002A24"/>
<path d="M294.74 127.594C294.6 128.34 294.876 129.026 295.357 129.123C295.839 129.223 296.343 128.698 296.482 127.952C296.621 127.206 296.344 126.52 295.863 126.422C295.381 126.325 294.877 126.848 294.738 127.594H294.74Z" fill="#F7A491"/>
<path d="M305.393 136.785C305.393 136.785 314.469 145.594 316.518 147.371C318.373 148.979 325.168 155.936 325.471 156.168C325.773 156.401 330.533 155.095 330.516 155.714C330.496 156.334 328.047 156.257 328.151 156.956C328.255 157.656 333.247 161.174 332.879 161.439C332.191 161.935 329.743 159.404 329.464 159.696C329.188 159.988 332.261 162.103 331.975 162.758C331.688 163.413 329.248 160.486 328.932 160.595C328.616 160.704 330.863 163.654 330.162 163.84C329.781 163.941 328.226 161.169 327.917 161.509C327.607 161.851 328.471 164.153 328.021 164.226C327.57 164.3 327.554 162.201 326.643 161.29C325.733 160.378 325.539 159.25 323.672 158.221C322.75 157.712 316.533 152.986 311.446 148.818C306.231 144.546 302.159 140.836 302.159 140.836L305.391 136.787L305.393 136.785Z" fill="#F7A491"/>
<path d="M300.842 133.225C300.842 133.225 298.86 136.344 301.553 140.123C304.321 144.008 307.433 145.79 307.433 145.79L311.236 141.689C311.236 141.689 305.969 134.639 300.844 133.225H300.842Z" fill="url(#paint28_linear_72_225)"/>
<path d="M107.678 210.355C107.678 210.355 106.966 214.468 106.966 214.476C106.931 215.011 106.966 216.362 106.859 216.83C106.451 218.591 99.3964 213.516 101.328 213.144C101.502 213.11 102.456 212.77 102.646 212.183C102.941 211.278 103.576 209.458 103.576 209.458L107.677 210.353L107.678 210.355Z" fill="#F7A491"/>
<path d="M101.35 213.133C101.35 213.133 103.059 214.099 103.966 214.452C104.874 214.805 106.374 213.961 106.968 214.422C107.621 214.929 106.558 218.867 106.558 218.867C106.558 218.867 96.1467 217.285 93.5898 215.747C92.577 215.137 97.3116 213.513 101.35 213.131V213.133Z" fill="#847D3D"/>
<path d="M148.314 191.095C148.314 191.095 152.432 190.492 152.44 190.49C152.959 190.357 154.226 189.901 154.705 189.859C156.5 189.7 153.888 198.004 152.935 196.28C152.848 196.125 152.229 195.322 151.613 195.322C150.664 195.322 148.743 195.284 148.743 195.284L148.314 191.095Z" fill="#F7A491"/>
<path d="M152.916 196.261C152.916 196.261 153.298 194.332 153.351 193.356C153.404 192.38 152.135 191.214 152.388 190.504C152.664 189.724 156.727 189.511 156.727 189.511C156.727 189.511 158.469 199.926 157.81 202.844C157.548 204 154.535 199.992 152.916 196.261Z" fill="#847D3D"/>
<path d="M127.063 141.454L121.745 143.716L122.908 152.808C122.77 153.358 114.584 163.78 114.584 163.78C114.584 163.78 115.442 165.207 116.455 165.425C117.261 163.439 128.542 154.445 128.572 153.843C128.604 153.216 127.062 141.455 127.062 141.455L127.063 141.454Z" fill="#F8A492"/>
<path d="M130.953 170.487L109.855 161.956L115.85 147.758L135.913 157.915L130.953 170.487Z" fill="#B7D972"/>
<path d="M132.563 170.068L110.679 161.622L116.672 147.422L138.557 155.868L132.563 170.068Z" fill="#EDFDFC"/>
<path d="M130.633 171.007L108.747 162.561L114.743 148.361L136.627 156.807L130.633 171.007Z" fill="url(#paint29_linear_72_225)"/>
<path d="M130.71 157.024L128.06 165.069C128.06 165.069 126.009 185.943 127.047 195.621C127.483 199.668 150.639 196.332 150.639 196.332L150.207 189.686L135.643 189.24L141.17 173.18L141.051 159.855L130.71 157.024Z" fill="#352B14"/>
<path d="M145.669 163.612C146.562 169.081 141.171 173.18 141.171 173.18L118.818 192.531L108.551 212.786C108.551 212.786 104.242 212.541 102.526 211.069C102.526 211.069 107.002 194.066 110.744 187.118C114.197 180.708 128.915 164.098 128.915 164.098L140.509 152.577C140.509 152.577 145.207 160.774 145.669 163.612Z" fill="#473B1E"/>
<path d="M121.906 147.03L128.457 145.694C128.457 145.694 127.041 140.568 126.227 138.167C125.239 135.252 123.447 131.78 123.127 131.996C122.241 132.596 121.246 133.286 120.798 134.627C119.247 139.268 121.908 147.03 121.908 147.03H121.906Z" fill="url(#paint30_linear_72_225)"/>
<path d="M153.54 163.952C153.993 162.137 154.282 162.285 154.335 162.05C154.396 161.773 153.018 158.213 153.018 158.213C153.018 158.213 149.024 147.696 148.789 147.136L140.51 138.851L143.483 133.67C143.483 133.67 152.248 142.917 152.623 143.479C152.996 144.041 156.717 158.861 157.089 160.155C157.089 160.155 158.108 161.543 158.719 162.435C159.33 163.328 159.508 164.438 159.641 164.716C159.66 164.756 160.049 165.705 160.214 166.993C160.354 168.104 159.705 167.11 159.705 167.11C159.705 167.11 159.068 165.095 158.916 165.17C158.799 165.228 159.212 166.31 159.382 167.537C159.425 167.853 159.466 168.165 159.503 168.452C159.598 169.205 159.156 169.473 158.93 168.699C158.85 168.426 158.729 167.969 158.689 167.632C158.646 167.268 158.487 166.947 158.402 166.645C158.236 166.048 158.122 165.61 158.102 165.629C158.074 165.655 157.956 165.559 157.991 165.896C158.034 166.3 158.318 167.141 158.334 167.741C158.343 168.081 158.406 168.791 158.406 168.791C158.406 168.791 158.298 169.879 158.231 169.893C157.87 169.972 157.73 169.208 157.778 168.744C157.655 168.433 157.61 167.685 157.61 167.685C157.61 167.685 157.175 166.189 156.959 166.245C156.868 166.269 157.023 167.216 157.028 168.168C157.033 169.051 156.89 169.943 156.713 169.969C156.412 170.012 156.301 169.031 156.301 169.031C156.301 169.031 156.261 168.34 156.229 168.112C156.193 167.844 156.02 167.049 156.02 167.049C156.02 167.049 155.29 164.308 155.09 164.379C154.892 164.45 154.455 164.83 154.441 165.014C154.426 165.199 154.58 165.552 154.565 165.738C154.551 165.923 154.372 166.151 154.14 166.149C153.908 166.148 153.629 165.226 153.629 165.226C153.629 165.226 153.409 164.475 153.54 163.95V163.952Z" fill="#F8A492"/>
<path d="M131.23 129.095C131.23 129.095 135.534 128.108 136.627 128.453C137.857 128.843 141.243 131.539 141.243 131.539C141.243 131.539 140.784 151.079 142.091 154.126C143.398 157.172 145.669 161.58 145.669 161.58C145.669 161.58 133.478 166.188 128.161 165.87C128.161 165.87 127.251 158.332 126.62 156.473C125.99 154.615 120.53 135.782 120.796 134.625C121.061 133.468 122.073 132.543 124.186 131.364C126.3 130.184 131.23 129.093 131.23 129.093V129.095Z" fill="url(#paint31_linear_72_225)"/>
<path d="M128.614 124.367L131.14 129.122C131.14 129.122 130.271 136.437 128.279 136.461C126.607 136.482 125.686 130.716 125.686 130.716C125.686 130.716 125.516 127.519 124.769 126.124C124.022 124.729 128.612 124.368 128.612 124.368L128.614 124.367Z" fill="#F7A491"/>
<path d="M124.77 126.124C124.023 124.729 128.614 124.368 128.614 124.368C128.614 124.368 128.625 124.606 128.572 124.875C128.169 126.946 126.78 128.502 125.508 128.945C125.367 128.112 125.076 126.695 124.769 126.124H124.77Z" fill="#F47458"/>
<path d="M126.252 116.36C126.372 116.272 129.598 122.686 128.419 125.092C127.238 127.498 123.924 129.194 122.167 128.13C120.226 126.954 117.85 119.721 120.015 116.951C122.18 114.181 126.252 116.358 126.252 116.358V116.36Z" fill="#F7A491"/>
<path d="M123.236 113.638C124.076 113.773 124.922 113.855 125.77 113.921C126.7 113.995 127.889 114.41 129.372 115.633C131.98 117.78 131.486 120.979 130.241 123.202C129.26 124.954 129.283 125.627 129.283 125.627C128.828 125.039 128.135 124.518 127.867 123.88C127.695 123.476 127.649 123.293 127.705 122.868C127.852 121.749 126.134 121.568 125.439 120.891C124.905 120.369 124.407 118.95 123.548 118.08L122.673 117.483C122.673 117.483 120.916 116.88 119.641 117.599C118.458 118.267 117.46 112.706 123.236 113.633V113.638Z" fill="#184655"/>
<path d="M125.938 122.059C126.201 122.882 126.82 123.431 127.321 123.285C127.822 123.139 128.014 122.353 127.75 121.529C127.486 120.706 126.868 120.157 126.367 120.303C125.866 120.449 125.674 121.236 125.938 122.059Z" fill="#F7A491"/>
<path d="M147.539 136.543L143.347 142.466C143.347 142.466 140.243 140.812 138.005 138.836C134.142 135.427 134.792 128.462 136.249 128.392C139.51 128.234 147.539 136.544 147.539 136.544V136.543Z" fill="url(#paint32_linear_72_225)"/>
<path d="M92.801 147.623C92.801 147.623 91.0602 147.942 91.0618 147.775C91.0618 147.619 91.6938 147.695 93.7291 146.864C94.4587 146.567 94.4347 145.833 92.817 146.509C92.529 146.629 92.2298 146.629 91.9738 146.687C91.4666 146.801 91.097 146.892 91.1034 146.865C91.113 146.83 90.9978 146.769 91.2618 146.655C91.5802 146.517 92.313 146.4 92.7658 146.154C93.0235 146.015 93.5755 145.763 93.5755 145.763C93.5755 145.763 94.4331 145.238 94.4187 145.174C94.3451 144.824 93.6379 144.992 93.3099 145.236C93.0315 145.263 92.457 145.549 92.457 145.549C92.457 145.549 91.1802 145.817 91.1418 145.605C91.1114 145.432 94.0571 144.095 93.9611 143.75C93.8475 143.342 92.3434 144.13 92.2682 144.159C92.0538 144.243 91.3978 144.439 91.3978 144.439C91.3978 144.439 89.0809 144.991 89.0601 144.787C89.0393 144.583 89.3913 144.228 89.5241 144.137C89.6569 144.044 89.8041 143.92 89.9369 143.827C90.0697 143.734 90.1209 143.543 90.0329 143.341C89.9465 143.139 89.3481 143.375 89.1561 143.505C88.5545 143.907 87.1352 145.365 86.9784 145.512C86.7944 145.686 75.7795 145.344 74.693 145.17L74.4946 138.515L69.1216 140.122L70.6977 149.356C71.6481 152.081 86.1896 148.456 86.6376 148.359C86.6376 148.359 88.044 148.491 88.9369 148.637C89.8281 148.783 90.6985 148.497 90.9546 148.494C90.993 148.494 91.8746 148.536 92.8971 148.12C93.7787 147.762 92.7962 147.626 92.7962 147.626L92.801 147.623Z" fill="#F7A491"/>
<path d="M87.9577 146.339C87.9577 146.339 89.1513 145.756 89.0921 144.819C89.0921 144.819 89.2985 145.334 89.0025 145.798C88.7081 146.262 87.9561 146.339 87.9561 146.339H87.9577Z" fill="#F47458"/>
<path d="M38.0705 181.569C35.0272 181.459 32.2766 180.885 31.9502 180.798C31.7934 180.756 31.1614 180.219 30.9998 180.172C27.446 181.082 25.6747 183.867 24.4939 186.404C26.2364 185.616 28.5309 184.399 28.9565 184.477C29.6349 184.602 32.3278 184.794 36.3056 186.091C36.2192 184.151 37.2081 183.297 38.0673 181.569H38.0705Z" fill="#F7A491"/>
<path d="M31.8479 180.747C31.1246 179.723 29.2157 178.125 29.0125 178.267C28.7693 178.439 20.7194 185.04 20.809 186.908C20.8634 188.031 22.321 187.335 24.4955 186.402C25.6764 183.865 31.1678 180.259 31.8479 180.745V180.747Z" fill="url(#paint33_linear_72_225)"/>
<path d="M71.6256 206.731C72.0512 209.195 72.9361 214.693 72.9521 215.229C72.9569 215.384 73.2561 215.941 73.3681 216.055C76.805 216.922 79.682 215.394 81.9397 213.8C80.0836 213.662 77.6275 213.5 77.2323 213.37C76.8338 213.239 76.2466 212.679 76.1026 211.698C75.8066 209.671 75.9666 207.466 74.949 205.385C74.0513 207.058 73.2113 205.67 71.6256 206.731Z" fill="#F7A491"/>
<path d="M72.9473 215.181C73.0433 216.376 73.6561 218.946 73.8993 218.918C74.1889 218.886 84.2054 216.416 85.287 215.07C85.9751 214.213 84.2326 214.014 81.9413 213.8C79.6836 215.394 73.2753 215.903 72.9489 215.181H72.9473Z" fill="url(#paint34_linear_72_225)"/>
<path d="M68.7567 154.912L72.3153 154.824C72.3153 154.824 71.6913 161.182 71.8081 163.264C71.9249 165.345 75.7747 183.396 75.6851 185.656C75.5954 187.914 76.9043 210.899 76.9043 210.899L72.1697 210.926C72.1697 210.926 68.7871 195.905 68.7071 192.796C68.6207 189.41 68.6207 186.394 68.6207 186.394L61.91 169.104L68.7583 154.912H68.7567Z" fill="url(#paint35_linear_72_225)"/>
<path d="M72.3136 154.824C72.3136 154.824 61.9068 190.628 58.7674 191.6C54.7704 192.836 31.8446 185.634 31.8446 185.634L33.3471 180.48C33.3471 180.48 46.5605 180.878 54.396 182.875C54.396 182.875 54.252 162.442 56.4505 159.523C58.6586 156.592 61.9068 153.023 61.9068 153.023L72.7584 153.533L72.3136 154.824Z" fill="url(#paint36_linear_72_225)"/>
<path d="M68.4687 111.913C67.1534 113.452 65.3645 113.059 63.3452 113.194C61.99 113.285 60.8091 115.282 60.6443 116.925C60.5291 118.076 60.1547 119.348 58.833 119.538C58.3162 119.611 57.793 119.533 57.2713 119.518C51.7319 119.366 49.727 125.341 51.3303 129.844C52.6903 133.664 56.2345 135.469 59.8955 136.493C61.6043 136.971 62.8332 137.501 64.6733 137.093C66.7438 136.636 68.7087 135.596 70.4591 134.423C73.5105 132.38 70.9904 130.378 71.9872 128.671C72.9841 126.965 77.3234 127.758 78.5507 124.07C79.8772 120.08 79.4451 117.461 78.3011 115.156C76.4082 111.343 71.456 110.327 69.6767 111.062C69.1471 111.281 68.7551 111.576 68.4671 111.913H68.4687Z" fill="url(#paint37_linear_72_225)"/>
<path d="M75.117 128.843C73.6545 128.249 70.0272 128.204 70.0272 128.204C70.0272 128.204 67.1598 128.148 62.6668 129.31L61.854 137.64C61.854 137.64 63.5181 145.581 62.9917 147.966C62.5676 149.889 60.8364 153.13 60.8364 153.13C60.8364 153.13 60.7436 153.514 67.7887 154.934C70.6176 155.504 72.8273 154.954 72.8273 154.954C72.8273 154.954 72.9969 151.847 73.8529 148.886C75.2482 144.063 77.6211 138.356 77.7843 137.616C78.0467 136.424 76.5763 129.438 75.1138 128.844L75.117 128.843Z" fill="#B7D972"/>
<path d="M70.688 123.439C70.688 123.439 70.2192 126.843 69.6688 128.061C69.1183 129.279 70.0352 133.968 72.6881 134.89C75.3426 135.811 73.2417 129.472 73.4113 128.152C73.5793 126.833 74.8178 122.991 74.8178 122.991L70.688 123.439Z" fill="#F7A491"/>
<path d="M74.2225 124.927C74.5362 123.868 74.8178 122.991 74.8178 122.991L70.688 123.439C70.688 123.439 70.592 124.136 70.4368 125.01C71.8896 125.858 73.2177 125.665 74.2225 124.927Z" fill="#F47458"/>
<path d="M72.3777 114.181C72.3777 114.181 70.744 114.476 69.6799 115.96C68.6159 117.445 67.7358 121.916 70.9344 124.158C74.1329 126.402 76.8195 123.54 76.9859 120.645C77.1539 117.748 76.701 113.855 72.3777 114.179V114.181Z" fill="#F7A491"/>
<path d="M77.7779 119.772C77.4675 120.459 76.8915 120.868 76.493 120.687C76.0946 120.505 76.0226 119.801 76.333 119.114C76.6434 118.427 77.2195 118.016 77.6179 118.199C78.0163 118.381 78.0883 119.085 77.7779 119.772Z" fill="#F7A491"/>
<path d="M69.4528 119.987C69.6592 120.751 69.408 121.483 68.8944 121.622C68.3791 121.762 67.7951 121.256 67.5903 120.493C67.3839 119.729 67.6351 118.997 68.1487 118.857C68.664 118.718 69.248 119.223 69.4528 119.987Z" fill="#F7A491"/>
<path d="M94.422 140.587H73.7634V151.823H94.422V140.587Z" fill="url(#paint38_linear_72_225)"/>
<path d="M94.4219 140.587H87.9576V151.823H94.4219V140.587Z" fill="#EDFDFC"/>
<path d="M88.2808 152.065C88.2808 152.065 86.2423 152.334 86.2471 152.169C86.2519 152.014 86.9864 152.107 89.3817 151.335C90.2393 151.059 90.2313 150.324 88.3272 150.954C87.988 151.067 87.6392 151.059 87.34 151.108C86.7448 151.208 86.3127 151.288 86.3207 151.261C86.3319 151.226 86.1991 151.161 86.5111 151.054C86.8856 150.925 87.7432 150.829 88.2792 150.596C88.5832 150.465 89.2345 150.227 89.2345 150.227C89.2345 150.227 90.2473 149.727 90.2329 149.662C90.1545 149.311 89.3257 149.46 88.9369 149.693C88.612 149.714 87.9336 149.982 87.9336 149.982C87.9336 149.982 86.4375 150.214 86.3975 150.001C86.3655 149.826 89.8345 148.573 89.7321 148.226C89.6105 147.815 87.8344 148.56 87.7464 148.587C87.4952 148.666 86.724 148.841 86.724 148.841C86.724 148.841 84.007 149.327 83.9878 149.123C83.9686 148.919 84.3879 148.574 84.5447 148.486C84.7015 148.398 84.8775 148.277 85.0343 148.189C85.1911 148.101 85.2551 147.91 85.1591 147.706C85.0631 147.502 84.359 147.721 84.1318 147.844C83.4214 148.231 81.7285 149.646 81.5429 149.789C81.3237 149.958 68.4815 149.305 67.2175 149.099L67.1471 142.441L60.8396 143.895L62.4557 153.171C63.4989 155.921 80.5525 152.71 81.0773 152.625C81.0773 152.625 82.7158 152.797 83.7526 152.967C84.7895 153.139 85.8119 152.877 86.1111 152.88C86.1559 152.88 87.1832 152.948 88.3864 152.561C89.4249 152.227 88.2808 152.063 88.2808 152.063V152.065Z" fill="#F7A491"/>
<path d="M87.9576 144.551H94.4219C94.4219 144.551 97.9789 144.321 98.7069 145.578L91.1898 146.204C91.1898 146.204 91.6074 145.403 87.9576 144.549V144.551Z" fill="#B7D972"/>
<path d="M70.6801 136.992C70.6801 136.992 70.7153 139.884 73.7618 140.587H94.4203C94.4203 140.587 79.8501 140.314 79.3669 139.508C78.8852 138.703 79.05 137.815 79.05 137.815L70.6785 136.992H70.6801Z" fill="#EDFDFC"/>
<path d="M63.014 129.281C63.014 129.281 61.4668 129.127 60.3947 131.534C59.3227 133.941 60.6091 144.042 60.6091 144.042L67.5951 143.225C67.5951 143.225 68.3231 129.911 63.014 129.282V129.281Z" fill="url(#paint39_linear_72_225)"/>
<path d="M245.259 54.7657L240.379 63.3485L239.372 58.2418L229.903 61.7661L228.511 55.0834L238.651 54.2666L237.479 49.4263L245.259 54.7657Z" fill="url(#paint40_linear_72_225)"/>
<path d="M112.383 73.8587C120.877 74.3369 127.489 79.6265 127.15 85.6704C126.98 88.6923 125.105 91.3323 122.21 93.1554L123.05 103.738L118.292 94.924C116.132 95.5852 113.703 95.8901 111.155 95.7473C102.661 95.2674 96.0491 89.9794 96.3883 83.9355C96.7276 77.8917 103.888 73.3788 112.383 73.8587Z" fill="#B7D972"/>
<path d="M304.095 87.6283C296.279 88.0696 290.203 93.0736 290.525 98.8045C290.685 101.671 292.415 104.176 295.082 105.909L294.325 115.943L298.69 107.594C300.679 108.225 302.914 108.519 305.258 108.385C313.075 107.944 319.15 102.94 318.829 97.2093C318.507 91.4767 311.91 87.1886 304.094 87.6283H304.095Z" fill="#B7D972"/>
<path d="M122.082 47.9274L113.362 48.4153L114.78 53.591L104 56.3866L116.952 56.2181L115.927 50.3636L125.114 50.9285L122.082 47.9274Z" fill="#B7D972"/>
<path d="M116.469 83.5905C116.44 86.3749 114.167 88.6089 111.392 88.58C108.616 88.5511 106.389 86.2706 106.418 83.4862C106.446 80.7018 108.72 78.4678 111.495 78.4967C114.271 78.5256 116.498 80.8061 116.469 83.5905Z" fill="url(#paint41_linear_72_225)"/>
<path d="M109.736 87.0217C109.861 86.789 109.915 86.5242 110.026 86.2818C110.683 84.8375 112.139 83.8762 113.283 84.2341C113.896 84.425 114.479 84.8776 114.88 84.9578C115.109 85.0028 115.253 84.7027 115.042 84.5727C114.757 84.3977 114.416 84.2726 114.115 84.1249C113.347 83.751 112.61 83.4669 111.406 84.1618C110.901 84.4539 110.467 84.8567 110.125 85.3286C109.83 85.733 109.446 86.4776 109.486 86.9527C109.498 87.0763 109.669 87.1469 109.736 87.0201V87.0217Z" fill="#EFEFEF"/>
<path d="M309.505 98.7869C308.734 101.462 305.947 103.003 303.279 102.228C300.613 101.453 299.077 98.6569 299.849 95.9816C300.62 93.3063 303.407 91.7656 306.075 92.5408C308.74 93.3159 310.276 96.1116 309.505 98.7869Z" fill="url(#paint42_linear_72_225)"/>
<path d="M303.466 96.508C303.466 97.2799 303.198 97.9042 302.866 97.9042C302.535 97.9042 302.266 97.2783 302.266 96.508C302.266 95.7376 302.535 95.1118 302.866 95.1118C303.198 95.1118 303.466 95.7376 303.466 96.508Z" fill="#EDFDFC"/>
<path d="M306.852 96.508C306.852 97.2799 306.583 97.9042 306.252 97.9042C305.921 97.9042 305.652 97.2783 305.652 96.508C305.652 95.7376 305.921 95.1118 306.252 95.1118C306.583 95.1118 306.852 95.7376 306.852 96.508Z" fill="#EDFDFC"/>
<path d="M275.545 60.203C275.481 60.1291 275.38 60.1002 275.286 60.1243C274.825 60.2495 273.99 60.0633 273.577 59.9189L273.127 57.6865C273.452 57.3929 274.15 56.8953 274.622 56.8312C274.718 56.8183 274.8 56.7509 274.83 56.6578L275.398 54.9615C275.428 54.8684 275.404 54.7673 275.336 54.6983C274.998 54.3597 274.74 53.5412 274.659 53.1111L276.361 51.6041C276.777 51.7389 277.555 52.0968 277.848 52.4756C277.907 52.5526 278.006 52.5895 278.1 52.5703L279.851 52.2156C279.947 52.1963 280.022 52.1241 280.048 52.0294C280.171 51.5672 280.749 50.9349 281.08 50.6476L283.232 51.373C283.323 51.8015 283.403 52.6553 283.222 53.0983C283.186 53.1881 283.203 53.2924 283.267 53.3663L284.448 54.7079C284.512 54.7818 284.613 54.8106 284.707 54.7866C285.168 54.6614 286.003 54.8476 286.416 54.992L286.866 57.2243C286.541 57.518 285.843 58.0155 285.371 58.0797C285.275 58.0926 285.194 58.16 285.163 58.2531L284.595 59.9494C284.565 60.0425 284.589 60.1436 284.658 60.2126C284.997 60.5512 285.253 61.3697 285.334 61.7998L283.632 63.3067C283.216 63.1719 282.438 62.8141 282.147 62.4353C282.088 62.3583 281.989 62.3214 281.894 62.3406L280.145 62.6953C280.049 62.7146 279.974 62.7868 279.949 62.8815C279.825 63.3437 279.248 63.976 278.917 64.2632L276.764 63.5378C276.673 63.1093 276.593 62.2556 276.774 61.811C276.811 61.7211 276.793 61.6168 276.729 61.543L275.548 60.2013L275.545 60.203ZM280.441 59.6557C281.653 59.4102 282.435 58.2274 282.19 57.0141C281.945 55.7992 280.766 55.0145 279.557 55.26C278.345 55.5055 277.563 56.6883 277.808 57.9016C278.052 59.1165 279.232 59.9012 280.443 59.6557H280.441ZM280.725 61.0664C282.712 60.6635 283.997 58.7217 283.595 56.73C283.193 54.7368 281.257 53.4481 279.272 53.8509C277.284 54.2538 276 56.1956 276.401 58.1873C276.803 60.1805 278.739 61.4692 280.725 61.0664Z" fill="url(#paint43_linear_72_225)"/>
<path d="M290 68.1951C290.019 68.1197 290.08 68.0635 290.155 68.0475L291.541 67.7667C291.616 67.7506 291.695 67.7811 291.741 67.8421C291.973 68.1422 292.588 68.4246 292.917 68.5322L294.266 67.3398C294.202 66.9979 293.999 66.3512 293.73 66.0832C293.676 66.0286 293.656 65.9467 293.68 65.8745L294.132 64.5313C294.156 64.4574 294.22 64.4045 294.296 64.3948C294.671 64.3435 295.223 63.9503 295.48 63.7176L295.125 61.9507C294.799 61.8367 294.138 61.6891 293.772 61.787C293.698 61.8078 293.618 61.7837 293.567 61.7244L292.632 60.662C292.581 60.6042 292.568 60.5223 292.597 60.4501C292.741 60.0987 292.677 59.423 292.605 59.0828L290.901 58.5082C290.639 58.7345 290.181 59.2352 290.083 59.6011C290.064 59.6766 290.003 59.7327 289.928 59.7488L288.543 60.0296C288.467 60.0457 288.389 60.0152 288.343 59.9542C288.112 59.6541 287.496 59.3717 287.166 59.2641L285.818 60.4565C285.882 60.7984 286.085 61.4451 286.354 61.7131C286.408 61.7677 286.427 61.8495 286.403 61.9218L285.952 63.265C285.928 63.3389 285.864 63.3918 285.787 63.4014C285.413 63.4528 284.861 63.846 284.603 64.0787L284.96 65.8456C285.286 65.9596 285.947 66.1072 286.312 66.0093C286.386 65.9885 286.466 66.0125 286.517 66.0703L287.451 67.1327C287.502 67.1905 287.515 67.2724 287.486 67.3446C287.342 67.696 287.406 68.3717 287.48 68.7119L289.184 69.2864C289.447 69.0602 289.904 68.5595 290.002 68.1935L290 68.1951ZM290.477 66.0639C289.285 66.3062 288.123 65.5311 287.882 64.3355C287.64 63.1399 288.413 61.9747 289.605 61.7324C290.797 61.4917 291.959 62.2652 292.2 63.4608C292.442 64.6564 291.669 65.8216 290.477 66.0639Z" fill="url(#paint44_linear_72_225)"/>
<path d="M67.2702 96.8995C66.7678 96.1068 66.5053 94.863 66.8222 93.8134C67.3566 92.0417 69.3023 91.1076 68.9231 89.2187C68.8271 88.7437 68.5678 88.3826 68.2238 88.1723C67.3182 87.6187 66.0317 88.1258 65.1389 88.6987C64.5677 89.0646 64.0556 89.5461 63.6012 90.1463L62.9308 86.8098C63.9708 85.8614 65.2973 85.2692 66.659 84.9947C69.4495 84.4298 71.7536 85.2258 72.3168 88.0247C72.8304 90.578 71.232 91.9309 70.2223 93.3625C69.6623 94.1569 69.5823 94.725 69.7103 95.3573C69.7759 95.6847 69.9487 96.0763 70.1791 96.3122L67.2734 96.8995H67.2702ZM69.8495 101.258C67.1374 101.807 66.3741 98.1561 69.1135 97.6009C71.8128 97.0552 72.552 100.711 69.8495 101.258Z" fill="url(#paint45_linear_72_225)"/>
<path d="M219.77 19.9291C215.76 17.2634 214.661 11.823 217.318 7.7996C219.976 3.77783 225.4 2.67529 229.41 5.34096C233.42 8.00662 234.519 13.4471 231.862 17.4705C229.204 21.4922 223.78 22.5948 219.77 19.9291Z" fill="url(#paint46_linear_72_225)"/>
<path d="M219.896 19.7381C215.99 17.1415 214.92 11.8423 217.509 7.9248C220.098 4.00735 225.381 2.9337 229.287 5.53035C233.193 8.12701 234.263 13.4262 231.674 17.3437C229.085 21.2611 223.802 22.3348 219.896 19.7381Z" fill="url(#paint47_linear_72_225)"/>
<path d="M230.353 16.514C228.236 19.7173 223.93 20.5935 220.735 18.4703C217.541 16.3471 216.667 12.0284 218.784 8.82353C220.901 5.62024 225.207 4.74399 228.402 6.86721C231.596 8.99044 232.47 13.3091 230.353 16.514Z" fill="white"/>
<path d="M220.954 18.1365C217.931 16.1272 217.101 12.0252 219.106 8.99205C221.109 5.96048 225.199 5.12756 228.223 7.13844C231.245 9.14772 232.076 13.2497 230.071 16.2829C228.068 19.3145 223.978 20.1474 220.954 18.1365Z" fill="white"/>
<path d="M220.037 9.18942L219.056 8.53625C218.895 8.42872 218.677 8.47366 218.57 8.63575C218.463 8.79784 218.507 9.0161 218.669 9.12363L219.65 9.7768C219.811 9.88433 220.029 9.83939 220.136 9.6773C220.243 9.51521 220.199 9.29695 220.037 9.18942Z" fill="url(#paint48_linear_72_225)"/>
<path d="M221.637 17.103C221.475 16.9955 221.258 17.0404 221.151 17.2025L220.499 18.1863C220.392 18.3484 220.437 18.5666 220.599 18.6742C220.76 18.7817 220.978 18.7368 221.085 18.5747L221.736 17.5893C221.843 17.4272 221.799 17.2089 221.637 17.1014V17.103Z" fill="url(#paint49_linear_72_225)"/>
<path d="M230.508 16.1513L229.525 15.4982C229.364 15.3906 229.146 15.4356 229.039 15.5977C228.932 15.7598 228.977 15.978 229.138 16.0855L230.121 16.7387C230.282 16.8462 230.5 16.8013 230.607 16.6392C230.714 16.4771 230.669 16.2589 230.508 16.1513Z" fill="url(#paint50_linear_72_225)"/>
<path d="M228.578 6.60082C228.417 6.4933 228.199 6.53823 228.092 6.70033L227.441 7.6841C227.333 7.84619 227.378 8.06445 227.54 8.17198C227.701 8.2795 227.919 8.23457 228.026 8.07248L228.677 7.0871C228.785 6.925 228.74 6.70674 228.578 6.59922V6.60082Z" fill="url(#paint51_linear_72_225)"/>
<path d="M232.39 6.99514L233.59 6.30894C233.688 6.25248 233.813 6.28662 233.869 6.38559L234.654 7.76568C234.71 7.86466 234.676 7.98944 234.577 8.0459L233.378 8.7321C233.279 8.78856 233.155 8.75442 233.099 8.65545L232.314 7.27536C232.257 7.17638 232.292 7.0516 232.39 6.99514Z" fill="url(#paint52_linear_72_225)"/>
<path d="M224.793 3.06981L224.956 1.69451C224.97 1.58136 225.071 1.50132 225.184 1.51477L226.757 1.70234C226.87 1.71579 226.949 1.81743 226.936 1.93058L226.773 3.30589C226.76 3.41904 226.657 3.49889 226.545 3.48563L224.972 3.29806C224.86 3.2846 224.78 3.18296 224.793 3.06981Z" fill="url(#paint53_linear_72_225)"/>
<path d="M229.538 3.17892L230.087 2.34825C230.148 2.25595 230.272 2.2307 230.364 2.29188L232.055 3.41624C232.147 3.47742 232.173 3.60198 232.112 3.69428L231.563 4.52495C231.502 4.61725 231.377 4.6425 231.285 4.58132L229.594 3.45697C229.502 3.39579 229.477 3.27122 229.538 3.17892Z" fill="url(#paint54_linear_72_225)"/>
<path d="M229.604 4.05871C229.039 3.33652 228.969 2.3062 229.501 1.49896C230.169 0.491113 231.522 0.215078 232.529 0.882697C233.534 1.55032 233.809 2.90963 233.143 3.91908C232.61 4.72633 231.636 5.06335 230.753 4.82262L230.455 5.27358C231.588 5.65875 232.884 5.25111 233.575 4.20475C234.398 2.95938 234.057 1.27589 232.817 0.449386C231.575 -0.375509 229.897 -0.0336751 229.073 1.21009C228.381 2.25645 228.511 3.61256 229.306 4.50807L229.604 4.0571V4.05871Z" fill="url(#paint55_linear_72_225)"/>
<path d="M229.506 5.19493C229.703 5.32653 229.893 5.46455 230.077 5.60738L230.869 4.40855L229.935 3.78748L229.153 4.97186C229.271 5.04247 229.389 5.1179 229.506 5.19493Z" fill="url(#paint56_linear_72_225)"/>
<path d="M225.132 12.9849C224.936 13.2802 224.54 13.3604 224.245 13.1647C223.951 12.9689 223.871 12.5709 224.066 12.2756C224.261 11.9803 224.658 11.9 224.952 12.0958C225.247 12.2916 225.327 12.6896 225.132 12.9849Z" fill="url(#paint57_linear_72_225)"/>
<path d="M229.329 10.2839L224.701 12.8308C224.584 12.895 224.439 12.8517 224.375 12.7345C224.311 12.6174 224.354 12.4714 224.471 12.4072C224.488 12.3975 224.274 12.4922 229.33 10.2839H229.329Z" fill="url(#paint58_linear_72_225)"/>
<path d="M225.002 17.9375L224.354 12.6832C224.338 12.5516 224.431 12.4297 224.564 12.4136C224.695 12.3976 224.816 12.4906 224.832 12.6238C224.836 12.6447 224.826 12.4088 225.004 17.9375H225.002Z" fill="url(#paint59_linear_72_225)"/>
<path d="M224.816 12.7747C224.736 12.8951 224.575 12.9288 224.455 12.8485C224.335 12.7683 224.301 12.6062 224.381 12.4858C224.461 12.3655 224.623 12.3318 224.743 12.412C224.863 12.4922 224.896 12.6543 224.816 12.7763V12.7747Z" fill="url(#paint60_linear_72_225)"/>
<path d="M153.599 20.0494C152.85 20.2308 152.237 19.6787 152.053 18.9148C151.711 17.4945 153.064 16.8285 153.9 17.4287C154.799 18.0771 154.773 19.7654 153.599 20.0494ZM152.938 15.2188C152.975 15.482 152.842 15.6505 152.538 15.7244C152.202 15.8062 152.036 15.8287 151.898 15.5237C151.042 13.6348 150.548 12.4151 150.415 11.8663C149.187 6.62643 148.952 6.15941 149.146 6.11287C149.437 6.04226 149.901 6.03424 150.204 5.96041C150.506 5.88659 150.933 5.67956 151.223 5.60895C151.38 5.57043 151.426 5.94115 151.706 7.03887C152.724 11.0366 152.738 13.1116 152.938 15.2188Z" fill="url(#paint61_linear_72_225)"/>
</g>
<defs>
<linearGradient id="paint0_linear_72_225" x1="2.85777" y1="151.883" x2="116.492" y2="151.883" gradientUnits="userSpaceOnUse">
<stop stop-color="#00503E"/>
<stop offset="1" stop-color="#023222"/>
</linearGradient>
<linearGradient id="paint1_linear_72_225" x1="65.051" y1="74.125" x2="55.6026" y2="213.074" gradientUnits="userSpaceOnUse">
<stop stop-color="#53CD9F"/>
<stop offset="1" stop-color="#0D7A5C"/>
</linearGradient>
<linearGradient id="paint2_linear_72_225" x1="25.4603" y1="215.588" x2="144.936" y2="215.588" gradientUnits="userSpaceOnUse">
<stop stop-color="#00503E"/>
<stop offset="1" stop-color="#023222"/>
</linearGradient>
<linearGradient id="paint3_linear_72_225" x1="0" y1="219.326" x2="358" y2="219.326" gradientUnits="userSpaceOnUse">
<stop stop-color="#53CD9F"/>
<stop offset="1" stop-color="#0D7A5C"/>
</linearGradient>
<linearGradient id="paint4_linear_72_225" x1="33.7519" y1="65.4348" x2="54.118" y2="145.775" gradientUnits="userSpaceOnUse">
<stop stop-color="#FB9A2B"/>
<stop offset="1" stop-color="#E65925"/>
</linearGradient>
<linearGradient id="paint5_linear_72_225" x1="198.436" y1="23.3523" x2="200.43" y2="85.6155" gradientUnits="userSpaceOnUse">
<stop stop-color="#53CD9F"/>
<stop offset="1" stop-color="#0D7A5C"/>
</linearGradient>
<linearGradient id="paint6_linear_72_225" x1="82.8517" y1="27.0514" x2="84.8461" y2="89.3162" gradientUnits="userSpaceOnUse">
<stop stop-color="#53CD9F"/>
<stop offset="1" stop-color="#0D7A5C"/>
</linearGradient>
<linearGradient id="paint7_linear_72_225" x1="283.137" y1="2.21465" x2="303.503" y2="82.5554" gradientUnits="userSpaceOnUse">
<stop stop-color="#FB9A2B"/>
<stop offset="1" stop-color="#E65925"/>
</linearGradient>
<linearGradient id="paint8_linear_72_225" x1="257.445" y1="10.913" x2="250.582" y2="43.8028" gradientUnits="userSpaceOnUse">
<stop stop-color="#FB9A2B"/>
<stop offset="1" stop-color="#E65925"/>
</linearGradient>
<linearGradient id="paint9_linear_72_225" x1="314.686" y1="19.6306" x2="316.679" y2="81.8954" gradientUnits="userSpaceOnUse">
<stop stop-color="#53CD9F"/>
<stop offset="1" stop-color="#0D7A5C"/>
</linearGradient>
<linearGradient id="paint10_linear_72_225" x1="156.492" y1="166.149" x2="271.148" y2="166.149" gradientUnits="userSpaceOnUse">
<stop stop-color="#53CD9F"/>
<stop offset="1" stop-color="#0D7A5C"/>
</linearGradient>
<linearGradient id="paint11_linear_72_225" x1="147.592" y1="184.43" x2="280.8" y2="184.43" gradientUnits="userSpaceOnUse">
<stop stop-color="#FB9A2B"/>
<stop offset="1" stop-color="#E65925"/>
</linearGradient>
<linearGradient id="paint12_linear_72_225" x1="124.975" y1="206.807" x2="278.568" y2="206.807" gradientUnits="userSpaceOnUse">
<stop stop-color="#C9CD55"/>
<stop offset="0.51" stop-color="#659C52"/>
<stop offset="1" stop-color="#287F50"/>
</linearGradient>
<linearGradient id="paint13_linear_72_225" x1="217.626" y1="117.328" x2="193.892" y2="158.039" gradientUnits="userSpaceOnUse">
<stop stop-color="#53CD9F"/>
<stop offset="1" stop-color="#0D7A5C"/>
</linearGradient>
<linearGradient id="paint14_linear_72_225" x1="186.013" y1="153.285" x2="264.325" y2="153.285" gradientUnits="userSpaceOnUse">
<stop stop-color="#00503E"/>
<stop offset="1" stop-color="#023222"/>
</linearGradient>
<linearGradient id="paint15_linear_72_225" x1="183.296" y1="135.09" x2="265.53" y2="135.09" gradientUnits="userSpaceOnUse">
<stop stop-color="#00503E"/>
<stop offset="1" stop-color="#023222"/>
</linearGradient>
<linearGradient id="paint16_linear_72_225" x1="161.314" y1="34.1947" x2="159.985" y2="81.0032" gradientUnits="userSpaceOnUse">
<stop stop-color="#C9CD55"/>
<stop offset="0.51" stop-color="#659C52"/>
<stop offset="1" stop-color="#287F50"/>
</linearGradient>
<linearGradient id="paint17_linear_72_225" x1="139.286" y1="32.394" x2="160.029" y2="49.2117" gradientUnits="userSpaceOnUse">
<stop stop-color="#FB9A2B"/>
<stop offset="1" stop-color="#E65925"/>
</linearGradient>
<linearGradient id="paint18_linear_72_225" x1="149.164" y1="53.9777" x2="155.396" y2="53.9777" gradientUnits="userSpaceOnUse">
<stop stop-color="#53CD9F"/>
<stop offset="1" stop-color="#0D7A5C"/>
</linearGradient>
<linearGradient id="paint19_linear_72_225" x1="136.969" y1="35.2522" x2="157.711" y2="52.0699" gradientUnits="userSpaceOnUse">
<stop stop-color="#FB9A2B"/>
<stop offset="1" stop-color="#E65925"/>
</linearGradient>
<linearGradient id="paint20_linear_72_225" x1="131.499" y1="41.9991" x2="152.24" y2="58.8167" gradientUnits="userSpaceOnUse">
<stop stop-color="#FB9A2B"/>
<stop offset="1" stop-color="#E65925"/>
</linearGradient>
<linearGradient id="paint21_linear_72_225" x1="129.199" y1="47.8183" x2="134.91" y2="47.8183" gradientUnits="userSpaceOnUse">
<stop stop-color="#53CD9F"/>
<stop offset="1" stop-color="#0D7A5C"/>
</linearGradient>
<linearGradient id="paint22_linear_72_225" x1="203.995" y1="132.149" x2="217.469" y2="132.149" gradientUnits="userSpaceOnUse">
<stop stop-color="#FB9A2B"/>
<stop offset="1" stop-color="#E65925"/>
</linearGradient>
<linearGradient id="paint23_linear_72_225" x1="173.641" y1="156.077" x2="188.375" y2="156.077" gradientUnits="userSpaceOnUse">
<stop stop-color="#FB9A2B"/>
<stop offset="1" stop-color="#E65925"/>
</linearGradient>
<linearGradient id="paint24_linear_72_225" x1="183.999" y1="34.8382" x2="182.669" y2="81.6468" gradientUnits="userSpaceOnUse">
<stop stop-color="#C9CD55"/>
<stop offset="0.51" stop-color="#659C52"/>
<stop offset="1" stop-color="#287F50"/>
</linearGradient>
<linearGradient id="paint25_linear_72_225" x1="175.672" y1="34.6023" x2="174.342" y2="81.4109" gradientUnits="userSpaceOnUse">
<stop stop-color="#C9CD55"/>
<stop offset="0.51" stop-color="#659C52"/>
<stop offset="1" stop-color="#287F50"/>
</linearGradient>
<linearGradient id="paint26_linear_72_225" x1="293.578" y1="126.071" x2="289.496" y2="140.834" gradientUnits="userSpaceOnUse">
<stop stop-color="#C9CD55"/>
<stop offset="0.51" stop-color="#659C52"/>
<stop offset="1" stop-color="#287F50"/>
</linearGradient>
<linearGradient id="paint27_linear_72_225" x1="288.501" y1="172.711" x2="315.821" y2="172.711" gradientUnits="userSpaceOnUse">
<stop stop-color="#00503E"/>
<stop offset="1" stop-color="#023222"/>
</linearGradient>
<linearGradient id="paint28_linear_72_225" x1="307.993" y1="130.059" x2="303.911" y2="144.821" gradientUnits="userSpaceOnUse">
<stop stop-color="#C9CD55"/>
<stop offset="0.51" stop-color="#659C52"/>
<stop offset="1" stop-color="#287F50"/>
</linearGradient>
<linearGradient id="paint29_linear_72_225" x1="108.747" y1="159.685" x2="136.627" y2="159.685" gradientUnits="userSpaceOnUse">
<stop stop-color="#FB9A2B"/>
<stop offset="1" stop-color="#E65925"/>
</linearGradient>
<linearGradient id="paint30_linear_72_225" x1="134.725" y1="109.212" x2="116.686" y2="164.158" gradientUnits="userSpaceOnUse">
<stop stop-color="#53CD9F"/>
<stop offset="1" stop-color="#0D7A5C"/>
</linearGradient>
<linearGradient id="paint31_linear_72_225" x1="144.835" y1="112.531" x2="126.797" y2="167.477" gradientUnits="userSpaceOnUse">
<stop stop-color="#53CD9F"/>
<stop offset="1" stop-color="#0D7A5C"/>
</linearGradient>
<linearGradient id="paint32_linear_72_225" x1="147.827" y1="113.513" x2="129.79" y2="168.46" gradientUnits="userSpaceOnUse">
<stop stop-color="#53CD9F"/>
<stop offset="1" stop-color="#0D7A5C"/>
</linearGradient>
<linearGradient id="paint33_linear_72_225" x1="20.8074" y1="182.873" x2="31.8479" y2="182.873" gradientUnits="userSpaceOnUse">
<stop stop-color="#FB9A2B"/>
<stop offset="1" stop-color="#E65925"/>
</linearGradient>
<linearGradient id="paint34_linear_72_225" x1="72.9473" y1="216.36" x2="85.4374" y2="216.36" gradientUnits="userSpaceOnUse">
<stop stop-color="#FB9A2B"/>
<stop offset="1" stop-color="#E65925"/>
</linearGradient>
<linearGradient id="paint35_linear_72_225" x1="55.3721" y1="152.302" x2="74.8329" y2="187.361" gradientUnits="userSpaceOnUse">
<stop stop-color="#00503E"/>
<stop offset="1" stop-color="#023222"/>
</linearGradient>
<linearGradient id="paint36_linear_72_225" x1="45.7236" y1="157.659" x2="65.1844" y2="192.716" gradientUnits="userSpaceOnUse">
<stop stop-color="#00503E"/>
<stop offset="1" stop-color="#023222"/>
</linearGradient>
<linearGradient id="paint37_linear_72_225" x1="50.7943" y1="124.039" x2="79.3683" y2="124.039" gradientUnits="userSpaceOnUse">
<stop stop-color="#FB9A2B"/>
<stop offset="1" stop-color="#E65925"/>
</linearGradient>
<linearGradient id="paint38_linear_72_225" x1="73.7634" y1="146.206" x2="94.422" y2="146.206" gradientUnits="userSpaceOnUse">
<stop stop-color="#C7A44F"/>
<stop offset="1" stop-color="#609A3F"/>
</linearGradient>
<linearGradient id="paint39_linear_72_225" x1="67.0014" y1="128.499" x2="59.4761" y2="150.565" gradientUnits="userSpaceOnUse">
<stop stop-color="#C9CD55"/>
<stop offset="0.51" stop-color="#659C52"/>
<stop offset="1" stop-color="#287F50"/>
</linearGradient>
<linearGradient id="paint40_linear_72_225" x1="227.041" y1="16.4353" x2="247.407" y2="96.776" gradientUnits="userSpaceOnUse">
<stop stop-color="#FB9A2B"/>
<stop offset="1" stop-color="#E65925"/>
</linearGradient>
<linearGradient id="paint41_linear_72_225" x1="110.462" y1="67.7955" x2="113.342" y2="113.719" gradientUnits="userSpaceOnUse">
<stop stop-color="#53CD9F"/>
<stop offset="1" stop-color="#0D7A5C"/>
</linearGradient>
<linearGradient id="paint42_linear_72_225" x1="307.764" y1="82.2585" x2="300.088" y2="119.638" gradientUnits="userSpaceOnUse">
<stop stop-color="#53CD9F"/>
<stop offset="1" stop-color="#0D7A5C"/>
</linearGradient>
<linearGradient id="paint43_linear_72_225" x1="273.772" y1="40.7393" x2="287.493" y2="77.3641" gradientUnits="userSpaceOnUse">
<stop stop-color="#FB9A2B"/>
<stop offset="1" stop-color="#E65925"/>
</linearGradient>
<linearGradient id="paint44_linear_72_225" x1="280.481" y1="38.2261" x2="294.202" y2="74.8509" gradientUnits="userSpaceOnUse">
<stop stop-color="#FB9A2B"/>
<stop offset="1" stop-color="#E65925"/>
</linearGradient>
<linearGradient id="paint45_linear_72_225" x1="60.3051" y1="58.704" x2="80.6728" y2="139.045" gradientUnits="userSpaceOnUse">
<stop stop-color="#FB9A2B"/>
<stop offset="1" stop-color="#E65925"/>
</linearGradient>
<linearGradient id="paint46_linear_72_225" x1="224.532" y1="0.138017" x2="224.63" y2="20.892" gradientUnits="userSpaceOnUse">
<stop stop-color="#53CD9F"/>
<stop offset="1" stop-color="#0D7A5C"/>
</linearGradient>
<linearGradient id="paint47_linear_72_225" x1="224.532" y1="0.13804" x2="224.63" y2="20.892" gradientUnits="userSpaceOnUse">
<stop stop-color="#53CD9F"/>
<stop offset="1" stop-color="#0D7A5C"/>
</linearGradient>
<linearGradient id="paint48_linear_72_225" x1="219.311" y1="0.162114" x2="219.409" y2="20.9177" gradientUnits="userSpaceOnUse">
<stop stop-color="#53CD9F"/>
<stop offset="1" stop-color="#0D7A5C"/>
</linearGradient>
<linearGradient id="paint49_linear_72_225" x1="221.034" y1="0.154144" x2="221.132" y2="20.9097" gradientUnits="userSpaceOnUse">
<stop stop-color="#53CD9F"/>
<stop offset="1" stop-color="#0D7A5C"/>
</linearGradient>
<linearGradient id="paint50_linear_72_225" x1="229.748" y1="0.114015" x2="229.846" y2="20.868" gradientUnits="userSpaceOnUse">
<stop stop-color="#53CD9F"/>
<stop offset="1" stop-color="#0D7A5C"/>
</linearGradient>
<linearGradient id="paint51_linear_72_225" x1="228.025" y1="0.122024" x2="228.123" y2="20.876" gradientUnits="userSpaceOnUse">
<stop stop-color="#53CD9F"/>
<stop offset="1" stop-color="#0D7A5C"/>
</linearGradient>
<linearGradient id="paint52_linear_72_225" x1="233.449" y1="0.0964855" x2="233.548" y2="20.8505" gradientUnits="userSpaceOnUse">
<stop stop-color="#53CD9F"/>
<stop offset="1" stop-color="#0D7A5C"/>
</linearGradient>
<linearGradient id="paint53_linear_72_225" x1="225.853" y1="0.1438" x2="225.951" y2="20.8979" gradientUnits="userSpaceOnUse">
<stop stop-color="#53CD9F"/>
<stop offset="1" stop-color="#0D7A5C"/>
</linearGradient>
<linearGradient id="paint54_linear_72_225" x1="230.809" y1="0.112746" x2="230.907" y2="20.8683" gradientUnits="userSpaceOnUse">
<stop stop-color="#53CD9F"/>
<stop offset="1" stop-color="#0D7A5C"/>
</linearGradient>
<linearGradient id="paint55_linear_72_225" x1="231.309" y1="0.105947" x2="231.408" y2="20.8599" gradientUnits="userSpaceOnUse">
<stop stop-color="#53CD9F"/>
<stop offset="1" stop-color="#0D7A5C"/>
</linearGradient>
<linearGradient id="paint56_linear_72_225" x1="229.991" y1="0.112357" x2="230.089" y2="20.8663" gradientUnits="userSpaceOnUse">
<stop stop-color="#53CD9F"/>
<stop offset="1" stop-color="#0D7A5C"/>
</linearGradient>
<linearGradient id="paint57_linear_72_225" x1="224.54" y1="0.138044" x2="224.638" y2="20.892" gradientUnits="userSpaceOnUse">
<stop stop-color="#53CD9F"/>
<stop offset="1" stop-color="#0D7A5C"/>
</linearGradient>
<linearGradient id="paint58_linear_72_225" x1="226.783" y1="0.126808" x2="226.881" y2="20.8824" gradientUnits="userSpaceOnUse">
<stop stop-color="#53CD9F"/>
<stop offset="1" stop-color="#0D7A5C"/>
</linearGradient>
<linearGradient id="paint59_linear_72_225" x1="224.605" y1="0.138065" x2="224.703" y2="20.8921" gradientUnits="userSpaceOnUse">
<stop stop-color="#53CD9F"/>
<stop offset="1" stop-color="#0D7A5C"/>
</linearGradient>
<linearGradient id="paint60_linear_72_225" x1="224.54" y1="0.13807" x2="224.638" y2="20.8921" gradientUnits="userSpaceOnUse">
<stop stop-color="#53CD9F"/>
<stop offset="1" stop-color="#0D7A5C"/>
</linearGradient>
<linearGradient id="paint61_linear_72_225" x1="157.215" y1="34.1369" x2="177.581" y2="114.478" gradientUnits="userSpaceOnUse">
<stop stop-color="#FB9A2B"/>
<stop offset="1" stop-color="#E65925"/>
</linearGradient>
<clipPath id="clip0_72_225">
<rect width="358" height="220" fill="white"/>
</clipPath>
</defs>
</svg>
