<svg width="24" height="24" viewBox="0 0 24 24" fill="none" xmlns="http://www.w3.org/2000/svg">
<path opacity="0.4" d="M16 2H8C4 2 2 4 2 8V21C2 21.55 2.45 22 3 22H16C20 22 22 20 22 16V8C22 4 20 2 16 2Z" fill="#3CB189"/>
<path d="M16.551 7.46001C15.291 6.20001 14.071 6.17001 12.781 7.46001L11.991 8.25001C11.921 8.32001 11.901 8.42001 11.921 8.51001C12.1665 9.36067 12.6237 10.1352 13.2497 10.7613C13.8758 11.3873 14.6503 11.8445 15.501 12.09C15.521 12.1 15.551 12.1 15.581 12.1C15.651 12.1 15.721 12.07 15.771 12.02L16.551 11.24C17.191 10.6 17.501 9.99001 17.501 9.37001C17.501 8.72001 17.191 8.10001 16.551 7.46001ZM14.34 12.671C14.15 12.581 13.97 12.491 13.8 12.381C13.66 12.301 13.52 12.211 13.39 12.111C13.28 12.041 13.15 11.941 13.02 11.831C12.9775 11.8047 12.9402 11.7708 12.91 11.731C12.7 11.551 12.46 11.311 12.24 11.061C12.22 11.051 12.19 11.001 12.15 10.941C12.0549 10.8284 11.9648 10.7116 11.88 10.591C11.8 10.491 11.71 10.351 11.63 10.211C11.53 10.041 11.43 9.86101 11.35 9.68101C11.26 9.48101 11.19 9.30101 11.12 9.12101L7.35 12.891C7.1 13.141 6.87 13.601 6.82 13.941L6.53 16.021C6.46 16.461 6.59 16.871 6.86 17.151C7.09 17.381 7.41 17.501 7.76 17.501C7.84 17.501 7.91 17.491 7.99 17.481L10.07 17.191C10.41 17.141 10.87 16.911 11.12 16.661L14.89 12.891C14.71 12.821 14.53 12.751 14.34 12.671Z" fill="#3CB189"/>
</svg>
