<svg width="98" height="98" viewBox="0 0 98 98" fill="none" xmlns="http://www.w3.org/2000/svg">
<path d="M58.3917 41.3601C59.535 45.8517 57.5342 50.0167 54.1042 52.1401V60.2251C54.1042 61.5788 53.5664 62.877 52.6092 63.8342C51.652 64.7915 50.3537 65.3292 49 65.3292C47.6463 65.3292 46.348 64.7915 45.3908 63.8342C44.4336 62.877 43.8958 61.5788 43.8958 60.2251V52.1401C42.4866 51.2735 41.3226 50.0605 40.5149 48.6166C39.7072 47.1728 39.2827 45.5461 39.2817 43.8917C39.2817 37.6851 45.1617 32.8667 51.6133 34.5817C54.88 35.4392 57.5342 38.0934 58.3917 41.3601Z" fill="#0D7A5C"/>
<path opacity="0.4" d="M49 92.8958C24.7859 92.8958 5.10419 73.2141 5.10419 49C5.10419 24.7858 24.7859 5.10413 49 5.10413C68.355 5.10413 85.1784 17.5175 90.9359 35.9333C91.4258 37.5666 90.5275 39.2816 88.935 39.7716C87.3017 40.2616 85.5867 39.3633 85.0967 37.7708C82.7277 30.065 77.944 23.3251 71.4517 18.546C64.9594 13.7668 57.1025 11.2016 49.0409 11.2291C28.2159 11.2291 11.27 28.175 11.27 49C11.27 69.825 28.2159 86.7708 49.0409 86.7708C57.0808 86.8008 64.9184 84.2506 71.4012 79.4951C77.884 74.7395 82.6701 68.0295 85.0558 60.3516C85.5458 58.7183 87.2608 57.8608 88.8942 58.3508C90.5275 58.8408 91.385 60.5966 90.895 62.1891C85.0967 80.5641 68.2733 92.8958 49 92.8958Z" fill="#0D7A5C"/>
</svg>
