<svg width="98" height="98" viewBox="0 0 98 98" fill="none" xmlns="http://www.w3.org/2000/svg">
<path d="M49.0082 49C51.5315 49 53.9515 47.9976 55.7357 46.2134C57.52 44.4291 58.5223 42.0092 58.5223 39.4858C58.5223 36.9625 57.52 34.5426 55.7357 32.7583C53.9515 30.9741 51.5315 29.9717 49.0082 29.9717C46.4849 29.9717 44.0649 30.9741 42.2806 32.7583C40.4964 34.5426 39.494 36.9625 39.494 39.4858C39.494 42.0092 40.4964 44.4291 42.2806 46.2134C44.0649 47.9976 46.4849 49 49.0082 49ZM59.9474 68.0202C63.2549 68.0202 65.1741 64.3452 63.3366 61.6093C60.5599 57.4852 55.1699 54.7085 49.0041 54.7085C42.8383 54.7085 37.4483 57.4852 34.6716 61.6093C32.8341 64.3452 34.7533 68.0202 38.0608 68.0202H59.9474Z" fill="#0D7A5C"/>
<path opacity="0.4" d="M49 92.8958C24.7858 92.8958 5.10416 73.2141 5.10416 49C5.10416 24.7858 24.7858 5.10413 49 5.10413C68.355 5.10413 85.1783 17.5175 90.9358 35.9333C91.4258 37.5666 90.5275 39.2816 88.935 39.7716C87.3017 40.2616 85.5866 39.3633 85.0966 37.7708C82.7277 30.065 77.944 23.3251 71.4516 18.546C64.9593 13.7668 57.1025 11.2016 49.0408 11.2291C28.2158 11.2291 11.27 28.175 11.27 49C11.27 69.825 28.2158 86.7708 49.0408 86.7708C57.0808 86.8008 64.9183 84.2506 71.4012 79.4951C77.884 74.7395 82.6701 68.0295 85.0558 60.3516C85.5458 58.7183 87.2608 57.8608 88.8941 58.3508C90.5275 58.8408 91.385 60.5966 90.895 62.1891C85.0966 80.5641 68.2733 92.8958 49 92.8958Z" fill="#0D7A5C"/>
</svg>
