<svg width="24" height="24" viewBox="0 0 24 24" fill="none" xmlns="http://www.w3.org/2000/svg">
<path d="M21.07 5.23C19.46 5.07 17.85 4.95 16.23 4.86V4.85L16.01 3.55C15.86 2.63 15.64 1.25 13.3 1.25H10.68C8.35001 1.25 8.13 2.57 7.97 3.54L7.76 4.82C6.83001 4.88 5.9 4.94 4.97 5.03L2.93001 5.23C2.51001 5.27 2.21 5.64 2.25 6.05C2.29 6.46 2.65 6.76 3.07 6.72L5.11001 6.52C10.35 6 15.63 6.2 20.93 6.73H21.01C21.39 6.73 21.72 6.44 21.76 6.05C21.7751 5.85024 21.7113 5.65253 21.5823 5.49925C21.4533 5.34596 21.2694 5.24931 21.07 5.23Z" fill="#3CB189"/>
<path opacity="0.399" d="M19.23 8.14C18.99 7.89 18.66 7.75 18.32 7.75H5.67999C5.33999 7.75 4.99999 7.89 4.76999 8.14C4.53999 8.39 4.40999 8.73 4.42999 9.08L5.04999 19.34C5.15999 20.86 5.29999 22.76 8.78999 22.76H15.21C18.7 22.76 18.84 20.87 18.95 19.34L19.57 9.09C19.59 8.73 19.46 8.39 19.23 8.14Z" fill="#3CB189"/>
<path fill-rule="evenodd" clip-rule="evenodd" d="M9.58 17C9.58 16.8011 9.65902 16.6103 9.79967 16.4697C9.94032 16.329 10.1311 16.25 10.33 16.25H13.66C13.8589 16.25 14.0497 16.329 14.1903 16.4697C14.331 16.6103 14.41 16.8011 14.41 17C14.41 17.1989 14.331 17.3897 14.1903 17.5303C14.0497 17.671 13.8589 17.75 13.66 17.75H10.33C10.1311 17.75 9.94032 17.671 9.79967 17.5303C9.65902 17.3897 9.58 17.1989 9.58 17ZM8.75 13C8.75 12.8011 8.82902 12.6103 8.96967 12.4697C9.11032 12.329 9.30109 12.25 9.5 12.25H14.5C14.6989 12.25 14.8897 12.329 15.0303 12.4697C15.171 12.6103 15.25 12.8011 15.25 13C15.25 13.1989 15.171 13.3897 15.0303 13.5303C14.8897 13.671 14.6989 13.75 14.5 13.75H9.5C9.30109 13.75 9.11032 13.671 8.96967 13.5303C8.82902 13.3897 8.75 13.1989 8.75 13Z" fill="#3CB189"/>
</svg>
